<svg id="twotone-closed_caption-24px" xmlns="http://www.w3.org/2000/svg" width="24" height="24" viewBox="0 0 24 24">
  <path id="Path_5370" data-name="Path 5370" d="M0,0H24V24H0Z" fill="none"/>
  <path id="Path_5371" data-name="Path 5371" d="M12,4a8,8,0,1,0,8,8A8.011,8.011,0,0,0,12,4Zm5,9H13v4H11V13H7V11h4V7h2v4h4Z" fill="#fff" opacity="0.3"/>
  <path id="Path_5372" data-name="Path 5372" d="M12,2A10,10,0,1,0,22,12,10.016,10.016,0,0,0,12,2Zm0,18a8,8,0,1,1,8-8A8.011,8.011,0,0,1,12,20ZM13,7H11v4H7v2h4v4h2V13h4V11H13Z" fill="#fff"/>
</svg>
