<svg id="Group_32451" data-name="Group 32451" xmlns="http://www.w3.org/2000/svg" xmlns:xlink="http://www.w3.org/1999/xlink" width="80.091" height="98.447" viewBox="0 0 80.091 98.447">
  <defs>
    <linearGradient id="linear-gradient" x1="-0.672" y1="-0.084" x2="-0.668" y2="-0.082" gradientUnits="objectBoundingBox">
      <stop offset="0" stop-color="#d4e1f4"/>
      <stop offset="0.172" stop-color="#d4e1f4"/>
      <stop offset="0.2" stop-color="#d4e1f4"/>
      <stop offset="0.2" stop-color="#dae4f4"/>
      <stop offset="0.201" stop-color="#ebebf4"/>
      <stop offset="0.201" stop-color="#f6f1f4"/>
      <stop offset="0.202" stop-color="#fdf4f4"/>
      <stop offset="0.205" stop-color="#fff5f4"/>
      <stop offset="0.252" stop-color="#fff5f4"/>
      <stop offset="0.26" stop-color="#fff5f4"/>
      <stop offset="0.26" stop-color="#d4e1f4"/>
      <stop offset="0.397" stop-color="#d4e1f4"/>
      <stop offset="0.42" stop-color="#d4e1f4"/>
      <stop offset="0.42" stop-color="#dae4f4"/>
      <stop offset="0.421" stop-color="#ebebf4"/>
      <stop offset="0.421" stop-color="#f6f1f4"/>
      <stop offset="0.422" stop-color="#fdf4f4"/>
      <stop offset="0.425" stop-color="#fff5f4"/>
      <stop offset="0.489" stop-color="#fff5f4"/>
      <stop offset="0.5" stop-color="#fff5f4"/>
      <stop offset="0.5" stop-color="#f9f2f4"/>
      <stop offset="0.5" stop-color="#e8ebf4"/>
      <stop offset="0.5" stop-color="#dde5f4"/>
      <stop offset="0.501" stop-color="#d6e2f4"/>
      <stop offset="0.501" stop-color="#d4e1f4"/>
      <stop offset="0.706" stop-color="#d4e1f4"/>
      <stop offset="0.74" stop-color="#d4e1f4"/>
      <stop offset="0.741" stop-color="#fff5f4"/>
      <stop offset="0.835" stop-color="#fff5f4"/>
      <stop offset="0.85" stop-color="#fff5f4"/>
      <stop offset="0.851" stop-color="#d4e1f4"/>
    </linearGradient>
  </defs>
  <path id="Path_3833" data-name="Path 3833" d="M247.329,60.757l.8,85.1h24.453c6.38,0,6.521-6.674,6.521-6.674l3.263-78.422Z" transform="translate(-208.952 -49.075)" fill="#a4c2f7"/>
  <path id="Path_3834" data-name="Path 3834" d="M152.2,60.757l-.8,85.1H126.944c-6.38,0-6.521-6.674-6.521-6.674L117.16,60.757Z" transform="translate(-103.811 -49.075)" fill="#fff"/>
  <path id="Path_3835" data-name="Path 3835" d="M108.482,60.757l3.264,78.422s.141,6.674,6.521,6.674h37.163c6.38,0,6.521-6.674,6.521-6.674l3.263-78.422Z" transform="translate(-96.802 -49.075)" fill="url(#linear-gradient)"/>
  <g id="Group_2929" data-name="Group 2929" transform="translate(0 0)">
    <path id="Path_3836" data-name="Path 3836" d="M140.515,100.468c-.02,0-.042,0-.063,0a1.669,1.669,0,0,1-1.606-1.729l1.6-43.321H77.18l.414,9.943A1.669,1.669,0,0,1,76,67.1a1.629,1.629,0,0,1-1.736-1.6l-.486-11.681a1.668,1.668,0,0,1,1.667-1.739h66.742a1.667,1.667,0,0,1,1.668,1.73l-1.669,45.051A1.67,1.67,0,0,1,140.515,100.468Z" transform="translate(-68.766 -42.066)" fill="#428dff"/>
    <path id="Path_3837" data-name="Path 3837" d="M136.19,231.63H89.016a8.095,8.095,0,0,1-8.189-8.307l-2.359-56.7a1.668,1.668,0,0,1,1.6-1.737,1.639,1.639,0,0,1,1.736,1.6l2.361,56.731c.017.543.292,5.076,4.853,5.076h47.174a4.842,4.842,0,0,0,4.852-5.041l.972-20.041a1.646,1.646,0,0,1,1.748-1.586,1.671,1.671,0,0,1,1.586,1.748l-.97,20a8.083,8.083,0,0,1-8.187,8.261Z" transform="translate(-72.558 -133.183)" fill="#428dff"/>
    <path id="Path_3838" data-name="Path 3838" d="M192.247,13.349h-.042a1.67,1.67,0,0,1-1.627-1.708c.03-1.347-.3-5.265-2.158-7.166a3.779,3.779,0,0,0-2.849-1.136H168.888a3.779,3.779,0,0,0-2.849,1.136c-1.859,1.9-2.188,5.819-2.158,7.166a1.668,1.668,0,0,1-3.335.085c-.007-.254-.126-6.267,3.1-9.573A7.051,7.051,0,0,1,168.888,0h16.684a7.051,7.051,0,0,1,5.245,2.151c3.222,3.306,3.1,9.319,3.1,9.573A1.666,1.666,0,0,1,192.247,13.349Z" transform="translate(-138.854 0)" fill="#428dff"/>
    <path id="Path_3839" data-name="Path 3839" d="M249,197.258a1.668,1.668,0,0,1-1.669-1.669V140.527a1.669,1.669,0,1,1,3.337,0v55.062A1.668,1.668,0,0,1,249,197.258Z" transform="translate(-208.952 -112.159)" fill="#428dff"/>
    <path id="Path_3840" data-name="Path 3840" d="M162.219,197.258a1.668,1.668,0,0,1-1.669-1.669V140.527a1.669,1.669,0,1,1,3.337,0v55.062a1.668,1.668,0,0,1-1.669,1.669Z" transform="translate(-138.859 -112.159)" fill="#428dff"/>
    <path id="Path_3841" data-name="Path 3841" d="M335.778,197.258a1.668,1.668,0,0,1-1.669-1.669V140.527a1.669,1.669,0,1,1,3.337,0v55.062a1.668,1.668,0,0,1-1.669,1.669Z" transform="translate(-279.047 -112.159)" fill="#428dff"/>
    <path id="Path_3842" data-name="Path 3842" d="M126.158,55.416H49.4a1.669,1.669,0,1,1,0-3.337h76.754a1.669,1.669,0,0,1,0,3.337Z" transform="translate(-47.736 -42.065)" fill="#428dff"/>
    <circle id="Ellipse_898" data-name="Ellipse 898" cx="1.669" cy="1.669" r="1.669" transform="translate(5.653 26.699)" fill="#428dff"/>
    <circle id="Ellipse_899" data-name="Ellipse 899" cx="1.669" cy="1.669" r="1.669" transform="translate(70.08 61.739)" fill="#428dff"/>
  </g>
</svg>
